<?xml version="1.0" encoding="UTF-8" standalone="no"?>
<!DOCTYPE svg PUBLIC "-//W3C//DTD SVG 1.1//EN" "http://www.w3.org/Graphics/SVG/1.1/DTD/svg11.dtd">
<svg width="100%" height="100%" viewBox="0 0 2500 1219" version="1.1" xmlns="http://www.w3.org/2000/svg" xmlns:xlink="http://www.w3.org/1999/xlink" xml:space="preserve" xmlns:serif="http://www.serif.com/" style="fill-rule:evenodd;clip-rule:evenodd;stroke-linejoin:round;stroke-miterlimit:2;">
    <g transform="matrix(1,0,0,1,0,-656.906)">
        <g transform="matrix(1,0,0,0.487585,0,656.906)">
            <rect x="0" y="0" width="2500" height="2500" style="fill:white;"/>
        </g>
        <path d="M2349.68,875.861C2280.07,877.054 2217.43,875.407 2195.05,874.344C2172.59,873.267 2178.08,853.994 2188.65,837.056C2195.08,826.771 2200.71,817.458 2212.01,797.109C2243.74,739.977 2153.41,717.812 2122.33,771.117C2107.56,796.434 2076.94,848.625 2068.65,858.754C2059.51,869.96 2046.75,867.249 2031.36,867.301C1918.89,867.574 1571.97,866.938 1461.6,865.291C1385.48,864.162 1385.48,947.052 1461.6,947.052C1564.88,947.052 1848.41,944.808 1962.3,948.635C1982.21,949.296 1994.98,956.118 1979.39,976.092C1956.77,1005.14 1893.04,1097.33 1830.88,1189.5C1813.78,1165.29 1764.13,1155.06 1733.6,1158.98C1686.96,1165.37 1674.76,1151.77 1664.5,1130.39C1651.15,1103.45 1589.52,1077.9 1554.28,1143.15C1544,1162.17 1520.01,1199.35 1493.47,1241.45C1490.52,1226.06 1485.58,1211.12 1478.77,1197.01C1433.51,1102.07 1291.11,1090.96 1187.84,1168.13C1165.56,1184.55 1146.44,1204.87 1131.42,1228.11C1131.82,1224.45 1132.14,1220.77 1132.3,1217.01C1135.06,1149.82 1089.28,1136.49 1016.82,1139.26C912.436,1143.71 756.838,1190.03 712.572,1208.12C679.499,1221.63 668.968,1244.86 670.355,1263.2C672.599,1294.28 699.239,1300.17 717.008,1295.73C744.231,1288.77 756.993,1310.3 725.905,1359.17C719.783,1368.79 701.963,1397.36 679.46,1433.82C673.857,1412.98 662.366,1390.2 646.776,1366.37C604.858,1302.26 481.788,1230.17 459.558,1216.85C437.353,1203.52 393.619,1163.09 457.21,1138.91C505.639,1120.5 669.811,1085.41 756.163,1062.94C832.776,1042.66 835.551,941.346 719.225,968.284C614.845,992.446 441.322,1034.42 346.111,1079.33C280.705,1110.2 247.139,1161.59 298.499,1223.24C370.961,1310.26 497.144,1376.93 532.668,1408.02C568.205,1439.1 559.866,1460.54 523.784,1472.44C475.705,1488.33 189.514,1587.76 141.785,1607.91C88.843,1630.29 95.055,1731.31 219.422,1695.78C325.334,1665.43 522.643,1585.01 616.323,1536.7C576.688,1601.75 540.035,1663.1 532.668,1678.99C494.9,1761.16 563.497,1785.59 607.672,1727.12C624.909,1704.29 710.159,1553.19 738.758,1502.38C750.936,1480.75 764.347,1471.02 803.607,1463.55C884.603,1448.14 1035.39,1401.31 1100.81,1307.53C1097.99,1326.03 1098.24,1343.63 1101.21,1359.18C1121.76,1466.89 1264.99,1482.16 1334.41,1463.55C1350.83,1459.19 1371.97,1449.36 1393.54,1434.95C1396.35,1480.55 1465.05,1484.04 1482.94,1448C1506.52,1400.55 1577.32,1295.87 1604.55,1243.7C1637.03,1181.21 1644.53,1245.07 1696.15,1235.36C1756.39,1225.64 1765.28,1249.24 1782.47,1260.62L1783.03,1260.95C1744.58,1318.73 1711.65,1369.31 1696.42,1394.69C1643.13,1483.56 1757.42,1497.26 1788.53,1452.82C1819.61,1408.39 2059.25,1039.51 2102.01,981.759C2119.34,958.44 2120.1,950.865 2143.81,950.476C2188.6,949.737 2266.84,948.725 2333.7,950.476C2403.92,952.279 2406.83,874.875 2349.68,875.861Z" style="fill:rgb(15,25,96);"/>
        <path d="M1021.26,1292.49C971.033,1339.96 934.095,1357.74 872.463,1368.03C832.49,1374.66 814.073,1364.17 828.055,1321.36C843.891,1272.88 859.065,1250.32 901.334,1239.18C1027.06,1206.07 1061.25,1254.75 1021.26,1292.49ZM1326.08,1383.01C1280.84,1395.21 1205.32,1387.15 1192.01,1329.71C1185.06,1293.62 1202.56,1260.58 1235.86,1234.22C1303.06,1183.96 1381.6,1200.05 1402.15,1247.25C1435.18,1331.9 1369.11,1371.63 1326.08,1383.01Z" style="fill:white;"/>
    </g>
</svg>
